# Blender v2.91.0 OBJ File: 'gizmos.blend'
# www.blender.org
mtllib gizmo.translate.mtl
o translation_Cube
v 0.000000 0.150000 0.100828
v 0.000000 1.250000 0.100828
v 0.086603 0.150000 0.050828
v 0.086603 1.250000 0.050828
v 0.086603 0.150000 -0.049172
v 0.086603 1.250000 -0.049172
v 0.000000 0.150000 -0.099172
v 0.000000 1.250000 -0.099172
v -0.086603 0.150000 -0.049172
v -0.086603 1.250000 -0.049172
v -0.086603 0.150000 0.050828
v -0.086603 1.250000 0.050828
v 0.000000 0.100000 0.153460
v -0.000000 0.100000 1.253460
v -0.086602 0.050000 0.153460
v -0.086603 0.050000 1.253460
v -0.086602 -0.050000 0.153460
v -0.086603 -0.050000 1.253460
v 0.000000 -0.100000 0.153460
v -0.000000 -0.100000 1.253460
v 0.086603 -0.050000 0.153460
v 0.086603 -0.050000 1.253460
v 0.086603 0.050000 0.153460
v 0.086603 0.050000 1.253460
v 0.150000 0.100000 0.000828
v 0.150000 0.050000 -0.085774
v 1.250000 -0.050000 -0.085774
v 0.150000 -0.050000 -0.085774
v 0.150000 -0.100000 0.000828
v 1.250000 -0.050000 0.087431
v 0.150000 -0.050000 0.087431
v 1.250000 0.050000 0.087431
v 0.150000 0.050000 0.087431
v -0.150000 -0.150000 -0.149172
v -0.150000 0.150000 -0.149172
v -0.150000 -0.150000 0.150828
v -0.150000 0.150000 0.150828
v 0.150000 -0.150000 -0.149172
v 0.150000 0.150000 -0.149172
v 0.150000 -0.150000 0.150828
v 0.150000 0.150000 0.150828
v 0.000000 1.250000 0.150828
v 0.129904 1.250000 0.075828
v 0.129904 1.250000 -0.074172
v 0.000000 1.250000 -0.149172
v -0.129904 1.250000 -0.074172
v -0.129904 1.250000 0.075828
v -0.000000 0.150000 1.253459
v -0.129904 0.075000 1.253459
v -0.129904 -0.075000 1.253459
v -0.000000 -0.150000 1.253459
v 0.129904 -0.075000 1.253459
v 0.129904 0.075000 1.253459
v 1.250000 0.100000 0.000828
v 1.250000 0.050000 -0.085774
v 1.250000 -0.100000 0.000828
v 1.250000 0.150000 0.000828
v 1.250000 0.075000 -0.129076
v 1.250000 -0.075000 -0.129076
v 1.250000 -0.150000 0.000828
v 1.250000 -0.075000 0.130732
v 1.250000 0.075000 0.130732
v -0.000000 0.000000 1.653460
v 1.650000 -0.000000 0.000828
v -0.000000 1.650000 0.000828
vt 0.387645 0.254901
vt 0.325330 0.379223
vt 0.259471 0.050038
vt 0.080775 0.151260
vt 0.185530 0.371061
vt 0.438350 0.148628
vt 0.123080 0.245023
vt 0.438350 0.351566
vt 0.194515 0.124069
vt 0.259630 0.449962
vt 0.334348 0.125989
vt 0.081077 0.348610
vt 0.825149 0.754898
vt 0.762833 0.879224
vt 0.696971 0.550038
vt 0.518275 0.651258
vt 0.623029 0.871062
vt 0.875849 0.648629
vt 0.560578 0.745021
vt 0.875849 0.851565
vt 0.632016 0.624065
vt 0.697130 0.949962
vt 0.771853 0.625987
vt 0.518574 0.848611
vt 0.185531 0.871062
vt 0.123080 0.745024
vt 0.438351 0.851566
vt 0.438351 0.648628
vt 0.194515 0.624069
vt 0.259632 0.949962
vt 0.334349 0.625990
vt 0.081078 0.848611
vt 0.387647 0.754902
vt 0.080776 0.651260
vt 0.325332 0.879224
vt 0.259471 0.550038
vt 0.187500 0.562500
vt 0.187500 0.812500
vt 0.437500 0.812500
vt 0.437500 0.562500
vt 0.562500 0.562500
vt 0.562500 0.812500
vt 0.812500 0.812500
vt 0.812500 0.562500
vt 0.187500 0.562500
vt 0.187500 0.812500
vt 0.437500 0.812500
vt 0.437500 0.562500
vt 0.562500 0.562500
vt 0.562500 0.812500
vt 0.812500 0.812500
vt 0.812500 0.562500
vt 0.187500 0.187500
vt 0.187500 0.437500
vt 0.437500 0.437500
vt 0.437500 0.187500
vt 0.187500 0.187500
vt 0.187500 0.437500
vt 0.437500 0.437500
vt 0.437500 0.187500
vt 0.427120 0.349981
vt 0.427120 0.150019
vt 0.253947 0.050037
vt 0.080775 0.150019
vt 0.080775 0.349981
vt 0.253947 0.449963
vt 0.691447 0.949963
vt 0.864620 0.849981
vt 0.864620 0.650019
vt 0.691447 0.550037
vt 0.518274 0.650019
vt 0.518274 0.849981
vt 0.253948 0.949963
vt 0.427121 0.849981
vt 0.427121 0.650019
vt 0.253948 0.550037
vt 0.080775 0.650019
vt 0.080775 0.849981
vt 0.691447 0.550037
vt 0.691447 0.750000
vt 0.864620 0.650019
vt 0.864620 0.849981
vt 0.691447 0.949963
vt 0.518274 0.849981
vt 0.518274 0.650019
vt 0.080775 0.849981
vt 0.253948 0.750000
vt 0.080775 0.650019
vt 0.253948 0.949963
vt 0.427121 0.650019
vt 0.427121 0.849981
vt 0.253948 0.550037
vt 0.427120 0.150019
vt 0.253947 0.250000
vt 0.427120 0.349981
vt 0.253947 0.449963
vt 0.080775 0.349981
vt 0.080775 0.150019
vt 0.253947 0.050037
vn 0.5000 0.0000 0.8660
vn 1.0000 0.0000 0.0000
vn 0.5000 0.0000 -0.8660
vn -0.5000 0.0000 -0.8660
vn -1.0000 0.0000 0.0000
vn -0.5000 0.0000 0.8660
vn -0.5000 0.8660 -0.0000
vn -0.5000 -0.8660 -0.0000
vn 0.5000 -0.8660 0.0000
vn 0.5000 0.8660 0.0000
vn 0.0000 0.8660 -0.5000
vn 0.0000 0.0000 -1.0000
vn -0.0000 -0.8660 -0.5000
vn -0.0000 -0.8660 0.5000
vn -0.0000 0.0000 1.0000
vn -0.0000 0.8660 0.5000
vn 0.0000 -1.0000 0.0000
vn 0.0000 1.0000 0.0000
vn 0.9511 0.0000 0.3089
vn -0.4756 -0.8237 0.3089
vn -0.4756 0.8237 0.3089
vn 0.4756 0.8237 0.3089
vn 0.4756 -0.8237 0.3089
vn -0.9511 0.0000 0.3089
vn 0.3089 0.8237 -0.4756
vn 0.3089 0.8237 0.4756
vn 0.3089 -0.8237 0.4756
vn 0.3089 0.0000 -0.9511
vn 0.3089 0.0000 0.9511
vn 0.3089 -0.8237 -0.4756
vn 0.4756 0.3089 -0.8237
vn 0.4756 0.3089 0.8237
vn -0.4756 0.3089 0.8237
vn -0.4756 0.3089 -0.8237
vn 0.9511 0.3089 0.0000
vn -0.9511 0.3089 0.0000
usemtl Material
s off
f 1/1/1 3/2/1 4/3/1 2/4/1
f 3/2/2 5/5/2 6/6/2 4/3/2
f 5/5/3 7/7/3 8/8/3 6/6/3
f 7/7/4 9/9/4 10/10/4 8/8/4
f 9/9/5 11/11/5 12/12/5 10/10/5
f 11/11/6 1/1/6 2/4/6 12/12/6
f 13/13/7 15/14/7 16/15/7 14/16/7
f 15/14/5 17/17/5 18/18/5 16/15/5
f 17/17/8 19/19/8 20/20/8 18/18/8
f 19/19/9 21/21/9 22/22/9 20/20/9
f 21/21/2 23/23/2 24/24/2 22/22/2
f 23/23/10 13/13/10 14/16/10 24/24/10
f 54/25/11 55/26/11 26/27/11 25/28/11
f 55/26/12 27/29/12 28/30/12 26/27/12
f 27/29/13 56/31/13 29/32/13 28/30/13
f 56/31/14 30/33/14 31/34/14 29/32/14
f 30/33/15 32/35/15 33/36/15 31/34/15
f 32/35/16 54/25/16 25/28/16 33/36/16
f 34/37/5 36/38/5 37/39/5 35/40/5
f 36/41/15 40/42/15 41/43/15 37/44/15
f 40/45/2 38/46/2 39/47/2 41/48/2
f 38/49/12 34/50/12 35/51/12 39/52/12
f 36/53/17 34/54/17 38/55/17 40/56/17
f 41/57/18 39/58/18 35/59/18 37/60/18
f 43/61/17 42/62/17 47/63/17 46/64/17 45/65/17 44/66/17
f 49/67/12 48/68/12 53/69/12 52/70/12 51/71/12 50/72/12
f 57/73/5 58/74/5 59/75/5 60/76/5 61/77/5 62/78/5
f 53/79/19 63/80/19 52/81/19
f 51/82/20 63/80/20 50/83/20
f 49/84/21 63/80/21 48/85/21
f 48/85/22 63/80/22 53/79/22
f 52/81/23 63/80/23 51/82/23
f 50/83/24 63/80/24 49/84/24
f 57/86/25 64/87/25 58/88/25
f 62/89/26 64/87/26 57/86/26
f 60/90/27 64/87/27 61/91/27
f 58/88/28 64/87/28 59/92/28
f 61/91/29 64/87/29 62/89/29
f 59/92/30 64/87/30 60/90/30
f 45/93/31 65/94/31 44/95/31
f 43/96/32 65/94/32 42/97/32
f 42/97/33 65/94/33 47/98/33
f 46/99/34 65/94/34 45/93/34
f 44/95/35 65/94/35 43/96/35
f 47/98/36 65/94/36 46/99/36
