# Blender v2.91.0 OBJ File: 'untitled.blend'
# www.blender.org
mtllib cake.mtl
o Cylinder
v 0.000000 -0.050000 -1.000000
v 0.000000 0.050000 -1.000000
v 0.587785 -0.050000 -0.809017
v 0.587785 0.050000 -0.809017
v 0.951057 -0.050000 -0.309017
v 0.951057 0.050000 -0.309017
v 0.951056 -0.050000 0.309017
v 0.951056 0.050000 0.309017
v 0.587785 -0.050000 0.809017
v 0.587785 0.050000 0.809017
v -0.000000 -0.050000 1.000000
v -0.000000 0.050000 1.000000
v -0.587785 -0.050000 0.809017
v -0.587785 0.050000 0.809017
v -0.951056 -0.050000 0.309017
v -0.951056 0.050000 0.309017
v -0.951056 -0.050000 -0.309017
v -0.951056 0.050000 -0.309017
v -0.587785 -0.050000 -0.809017
v -0.587785 0.050000 -0.809017
v 0.000000 0.050000 -0.900000
v 0.529007 0.050000 -0.728115
v 0.855951 0.050000 -0.278115
v 0.855951 0.050000 0.278115
v 0.529007 0.050000 0.728115
v -0.000000 0.050000 0.900000
v -0.529007 0.050000 0.728115
v -0.855951 0.050000 0.278115
v -0.855951 0.050000 -0.278115
v -0.529006 0.050000 -0.728116
v 0.000000 0.450000 -0.900000
v 0.529007 0.450000 -0.728115
v 0.855951 0.450000 -0.278115
v 0.855951 0.450000 0.278115
v 0.529007 0.450000 0.728115
v -0.000000 0.450000 0.900000
v -0.529007 0.450000 0.728115
v -0.855951 0.450000 0.278115
v -0.855951 0.450000 -0.278115
v -0.529006 0.450000 -0.728116
v -0.000000 -0.050000 0.000000
v -0.000000 0.450000 0.000000
vt 0.051010 0.949887
vt 0.046351 0.951292
vt 0.046354 0.923699
vt 0.050949 0.925301
vt 0.062575 0.901377
vt 0.065351 0.905374
vt 0.088819 0.892853
vt 0.088715 0.897719
vt 0.115061 0.901382
vt 0.112117 0.905258
vt 0.131278 0.923708
vt 0.126618 0.925113
vt 0.131275 0.951301
vt 0.126679 0.949699
vt 0.115054 0.973623
vt 0.112277 0.969626
vt 0.088810 0.982147
vt 0.088913 0.977281
vt 0.136358 0.922052
vt 0.136358 0.952948
vt 0.062567 0.973618
vt 0.065511 0.969742
vt 0.088814 0.937500
vt 0.916278 0.222238
vt 0.916278 0.111133
vt 0.996177 0.111133
vt 0.996177 0.222238
vt 0.118198 0.897057
vt 0.088814 0.887510
vt 0.041271 0.952948
vt 0.041271 0.922052
vt 0.059431 0.897057
vt 0.059431 0.977943
vt 0.088814 0.987490
vt 0.118198 0.977943
vt 0.165261 0.905713
vt 0.403267 0.578125
vt 0.403267 0.983046
vt 0.916278 0.999972
vt 0.916278 0.888867
vt 0.996177 0.888867
vt 0.996177 0.999972
vt 0.916278 0.666657
vt 0.916278 0.555552
vt 0.996177 0.555552
vt 0.996177 0.666657
vt 0.916278 0.333343
vt 0.996177 0.333343
vt 0.917661 0.323637
vt 0.997491 0.323637
vt 0.997491 0.395537
vt 0.917661 0.395537
vt 0.916278 0.777762
vt 0.996177 0.777762
vt 0.916278 0.444448
vt 0.996177 0.444448
vt 0.916278 0.000028
vt 0.996177 0.000028
vt 0.788370 0.452997
vt 0.641274 0.250537
vt 0.165261 0.250537
vt 0.018165 0.452998
vt 0.641274 0.905713
vt 0.788370 0.703253
vt 0.403267 0.173204
vt 0.018165 0.703253
vn 0.3090 0.0000 -0.9511
vn 0.8090 0.0000 -0.5878
vn 1.0000 0.0000 0.0000
vn 0.8090 0.0000 0.5878
vn 0.3090 0.0000 0.9511
vn -0.3090 0.0000 0.9511
vn -0.8090 0.0000 0.5878
vn -1.0000 0.0000 0.0000
vn 0.0000 1.0000 0.0000
vn -0.8090 0.0000 -0.5878
vn -0.3090 0.0000 -0.9511
vn 0.0000 -1.0000 0.0000
usemtl Material.001
s off
f 1/1/1 2/2/1 4/3/1 3/4/1
f 3/4/2 4/3/2 6/5/2 5/6/2
f 5/6/3 6/5/3 8/7/3 7/8/3
f 7/8/4 8/7/4 10/9/4 9/10/4
f 9/10/5 10/9/5 12/11/5 11/12/5
f 11/12/6 12/11/6 14/13/6 13/14/6
f 13/14/7 14/13/7 16/15/7 15/16/7
f 15/16/8 16/15/8 18/17/8 17/18/8
f 14/13/9 12/11/9 26/19/9 27/20/9
f 17/18/10 18/17/10 20/21/10 19/22/10
f 19/22/11 20/21/11 2/2/11 1/1/11
f 1/1/12 41/23/12 19/22/12
f 26/24/5 25/25/5 35/26/5 36/27/5
f 12/11/9 10/9/9 25/28/9 26/19/9
f 10/9/9 8/7/9 24/29/9 25/28/9
f 4/3/9 2/2/9 21/30/9 22/31/9
f 8/7/9 6/5/9 23/32/9 24/29/9
f 6/5/9 4/3/9 22/31/9 23/32/9
f 2/2/9 20/21/9 30/33/9 21/30/9
f 20/21/9 18/17/9 29/34/9 30/33/9
f 18/17/9 16/15/9 28/35/9 29/34/9
f 16/15/9 14/13/9 27/20/9 28/35/9
f 32/36/9 42/37/9 33/38/9
f 23/39/2 22/40/2 32/41/2 33/42/2
f 30/43/10 29/44/10 39/45/10 40/46/10
f 27/47/6 26/24/6 36/27/6 37/48/6
f 24/49/3 23/50/3 33/51/3 34/52/3
f 21/53/11 30/43/11 40/46/11 31/54/11
f 28/55/7 27/47/7 37/48/7 38/56/7
f 25/25/4 24/57/4 34/58/4 35/26/4
f 22/40/1 21/53/1 31/54/1 32/41/1
f 29/44/8 28/55/8 38/56/8 39/45/8
f 11/12/12 41/23/12 9/10/12
f 17/18/12 41/23/12 15/16/12
f 7/8/12 41/23/12 5/6/12
f 15/16/12 41/23/12 13/14/12
f 5/6/12 41/23/12 3/4/12
f 19/22/12 41/23/12 17/18/12
f 9/10/12 41/23/12 7/8/12
f 3/4/12 41/23/12 1/1/12
f 13/14/12 41/23/12 11/12/12
f 36/59/9 42/37/9 37/60/9
f 39/61/9 42/37/9 40/62/9
f 34/63/9 42/37/9 35/64/9
f 37/60/9 42/37/9 38/65/9
f 42/37/9 32/36/9 31/66/9
f 38/65/9 42/37/9 39/61/9
f 33/38/9 42/37/9 34/63/9
f 35/64/9 42/37/9 36/59/9
f 40/62/9 42/37/9 31/66/9
